<svg width="1152" height="288" xmlns="http://www.w3.org/2000/svg" xmlns:xlink="http://www.w3.org/1999/xlink" overflow="hidden"><defs><clipPath id="clip0"><rect x="0" y="0" width="1152" height="288"/></clipPath></defs><g clip-path="url(#clip0)"><rect x="0" y="0" width="1152" height="288" fill="#FFFFFF"/><path d="M574 2 600 2 600 120 574 120 574 2Z" fill-rule="evenodd"/><path d="M384 13 425.671 13C445.875 13 455.977 22.302 455.977 40.9062 455.977 46.4977 454.872 51.1752 452.662 54.9376 450.821 58.1256 447.98 60.843 444.139 63.0899 452.736 64.867 458.608 68.2899 461.753 73.3589 464.584 78.0101 466 83.419 466 89.5853 466 97.581 463.711 104.087 459.134 109.104 452.504 116.368 442.402 120 428.828 120L384 120 384 13ZM412.017 34.1647 412.017 55.0946 417.125 55.0946C421.944 55.0946 425.402 53.9186 427.497 51.5671 429.173 49.6857 430.012 47.3601 430.012 44.5903 430.012 39.7302 427.811 36.5163 423.411 34.9485 421.839 34.426 419.744 34.1647 417.125 34.1647L412.017 34.1647ZM412.017 76.2593 412.017 98.8353 418.233 98.8353C425.367 98.8353 430.35 97.9992 433.183 96.3267 436.383 94.4454 437.983 91.5713 437.983 87.7039 437.983 81.4853 434.757 77.8271 428.305 76.7298 426.259 76.4163 422.744 76.2593 417.761 76.2593L412.017 76.2593Z" fill-rule="evenodd"/><path d="M651.527 45C656.699 45 661.559 46.08 666.105 48.2401 668.717 49.5046 671.408 51.5858 674.178 54.4836L674.178 47.2921 700 47.2921 700 120.629 674.178 120.629 674.178 112.489C671.722 115.598 669.24 117.863 666.732 119.286 662.342 121.762 657.352 123 651.761 123 642.721 123 634.674 119.869 627.619 113.606 619.207 106.132 615 96.237 615 83.9211 615 71.3945 619.311 61.3947 627.933 53.9215 634.778 47.9739 642.643 45 651.527 45ZM658.403 67.3649C653.3 67.3649 649.107 69.3052 645.827 73.1857 643.17 76.3313 641.842 79.923 641.842 83.9607 641.842 87.9984 643.17 91.5901 645.827 94.7357 649.055 98.6162 653.247 100.557 658.403 100.557 663.037 100.557 666.956 98.9571 670.159 95.7584 673.362 92.56 674.963 88.6275 674.963 83.9607 674.963 79.3467 673.349 75.4272 670.12 72.2023 666.891 68.9774 662.985 67.3649 658.403 67.3649Z" fill-rule="evenodd"/><path d="M520.896 45C536.906 45 548.345 50.7828 555.214 62.3478 559.071 68.8658 561 76.4354 561 85.0565L561 88.3685 506.392 88.3685C506.392 99.3352 511.699 104.818 522.313 104.818 527.725 104.818 531.877 102.51 534.766 97.8921L559.97 97.8921C557.962 104.483 555.003 109.583 551.093 113.192 544.012 119.731 534.528 123 522.64 123 507.529 123 496.168 118.435 488.56 109.305 482.853 102.483 480 94.1665 480 84.3542 480 72.7053 483.567 63.2342 490.7 55.9406 497.833 48.647 507.898 45 520.896 45ZM521.927 61.2926C517.512 61.2926 513.938 62.6034 511.205 65.2244 509.05 67.3109 507.684 70.1195 507.106 73.6498L536.668 73.6498C534.829 65.4117 529.915 61.2926 521.927 61.2926Z" fill-rule="evenodd"/><path d="M847.079 45C852.391 45 857.124 46.0764 861.278 48.2293 863.75 49.5421 866.328 51.6949 869.01 54.6878L869.01 47.0481 895 47.0481 895 115.098C895 121.504 894.552 126.676 893.657 130.614 892.235 136.916 888.548 142.56 882.598 147.548 875.066 153.849 865.06 157 852.579 157 839.518 157 829.117 153.56 821.375 146.682 816.214 142.114 812.923 137.335 811.501 132.347 811.343 131.822 811.132 130.72 810.869 129.039L839.94 129.039C840.782 131.43 841.914 133.145 843.336 134.185 845.654 135.9 848.603 136.758 852.184 136.758 858.188 136.758 862.796 134.638 866.008 130.398 868.009 127.729 869.01 123.908 869.01 118.936L869.01 112.027C865.907 114.862 863.303 116.857 861.199 118.013 856.835 120.428 851.681 121.636 845.737 121.636 838.269 121.636 831.59 119.719 825.699 115.886 819.651 111.948 815.312 106.566 812.682 99.7399 810.894 95.1192 810 90.1047 810 84.6961 810 72.7242 813.813 62.9842 821.44 55.4753 828.539 48.4918 837.086 45 847.079 45ZM853.685 66.266C848.496 66.266 844.25 68.2611 840.948 72.2518 838.327 75.4546 837.017 79.1566 837.017 83.3572 837.017 88.0305 838.629 92.0342 841.852 95.3686 845.076 98.7027 849.02 100.37 853.685 100.37 858.297 100.37 862.215 98.7027 865.439 95.3686 868.662 92.0342 870.274 88.0305 870.274 83.3572 870.274 78.6839 868.675 74.6671 865.478 71.3066 862.281 67.9461 858.35 66.266 853.685 66.266Z" fill-rule="evenodd"/><path d="M951.391 45C967.203 45 978.501 50.7828 985.286 62.3478 989.095 68.8658 991 76.4354 991 85.0565L991 88.3685 937.067 88.3685C937.067 99.3352 942.308 104.818 952.791 104.818 958.136 104.818 962.236 102.51 965.09 97.8921L989.982 97.8921C987.999 104.483 985.077 109.583 981.215 113.192 974.223 119.731 964.855 123 953.113 123 938.189 123 926.969 118.435 919.454 109.305 913.818 102.483 911 94.1665 911 84.3542 911 72.7053 914.523 63.2342 921.568 55.9406 928.613 48.647 938.554 45 951.391 45ZM952.409 61.2926C948.049 61.2926 944.519 62.6034 941.82 65.2244 939.692 67.3109 938.342 70.1195 937.771 73.6498L966.969 73.6498C965.152 65.4117 960.299 61.2926 952.409 61.2926Z" fill-rule="evenodd"/><path d="M768.078 46C776.033 46 782.503 48.1074 787.489 52.3226 793.163 57.1102 796 64.2919 796 73.867L796 120 769.788 120 769.788 83.3645C769.788 76.9734 769.049 72.739 767.57 70.6606 765.406 67.5941 762.16 66.0612 757.832 66.0612 753.873 66.0612 750.547 67.3811 747.855 70.0214 745.427 72.403 744.213 76.1307 744.213 81.2047L744.213 120 718 120 718 47.5612 744.213 47.5612 744.213 56.6941C747.235 53.2593 750.02 50.8397 752.566 49.4344 756.702 47.1448 761.873 46 768.078 46Z" fill-rule="evenodd"/><path d="M1054.96 46C1056.32 46 1058 46.0782 1060 46.235L1060 70.7718C1056.37 69.0415 1052.7 68.1766 1048.97 68.1766 1040.46 68.1766 1034.94 71.663 1032.42 78.6357 1031.47 81.1522 1031 84.5336 1031 88.7801L1031 120 1005 120 1005 47.0226 1031 47.0226 1031 58.9756C1033.73 54.729 1036.67 51.6623 1039.83 49.7748 1044.08 47.2583 1049.12 46 1054.96 46Z" fill-rule="evenodd"/><path d="M770 131 796 131 796 250 770 250 770 131Z" fill-rule="evenodd"/><path d="M977.46 134C981.495 134 984.927 135.401 987.756 138.204 990.585 141.007 992 144.426 992 148.461 992 152.548 990.598 155.993 987.795 158.796 984.993 161.599 981.548 163 977.46 163 973.426 163 970.007 161.586 967.205 158.756 964.401 155.927 963 152.495 963 148.461 963 144.426 964.401 141.007 967.205 138.204 970.007 135.401 973.426 134 977.46 134Z" fill-rule="evenodd"/><path d="M493.603 142 524.269 142 565 250 534.967 250 527.994 231.169 489.165 231.169 481.716 250 452 250 493.603 142ZM508.738 175.389 496.931 209.807 520.386 209.807 508.738 175.389Z" fill-rule="evenodd"/><path d="M913.654 155 940.016 155 940.016 176.959 955 176.959 955 198.132 940.016 198.132 940.016 250 913.654 250 913.654 198.132 905 198.132 905 176.959 913.654 176.959 913.654 155Z" fill-rule="evenodd"/><path d="M1113.15 174C1121.29 174 1129.2 175.586 1136.87 178.759L1128.12 195.574C1123.31 193.036 1118.7 191.767 1114.3 191.767 1109.12 191.767 1106.53 193.58 1106.53 197.206 1106.53 198.86 1107.58 200.193 1109.67 201.206 1110.62 201.682 1113.39 202.396 1118.01 203.347 1124.77 204.775 1129.75 207.049 1132.95 210.169 1136.98 214.082 1139 219.158 1139 225.397 1139 233.224 1136.22 239.622 1130.65 244.592 1124.39 250.197 1115.59 253 1104.24 253 1094.21 253 1084.46 250.171 1075 244.513L1084.38 226.112C1091.77 230.976 1098.63 233.409 1104.97 233.409 1110.37 233.409 1113.07 231.531 1113.07 227.777 1113.07 225.821 1112.13 224.313 1110.24 223.256 1109.03 222.569 1106.31 221.749 1102.06 220.797 1097.29 219.741 1094.17 218.923 1092.7 218.342 1087.46 216.284 1083.92 213.064 1082.09 208.683 1081.09 206.307 1080.6 203.456 1080.6 200.13 1080.6 193.69 1082.78 188.068 1087.14 183.264 1092.76 177.088 1101.43 174 1113.15 174Z" fill-rule="evenodd"/><path d="M702.527 174C707.699 174 712.559 175.08 717.105 177.24 719.717 178.505 722.408 180.586 725.178 183.484L725.178 176.292 751 176.292 751 249.629 725.178 249.629 725.178 241.489C722.722 244.598 720.24 246.863 717.732 248.286 713.342 250.762 708.352 252 702.761 252 693.721 252 685.674 248.869 678.619 242.606 670.207 235.132 666 225.237 666 212.921 666 200.394 670.311 190.395 678.933 182.921 685.778 176.974 693.643 174 702.527 174ZM709.403 196.365C704.3 196.365 700.107 198.305 696.827 202.186 694.17 205.331 692.842 208.923 692.842 212.961 692.842 216.998 694.17 220.59 696.827 223.736 700.055 227.616 704.247 229.557 709.403 229.557 714.037 229.557 717.956 227.957 721.159 224.758 724.362 221.56 725.963 217.627 725.963 212.961 725.963 208.347 724.349 204.427 721.12 201.202 717.891 197.977 713.985 196.365 709.403 196.365Z" fill-rule="evenodd"/><path d="M1047.16 174C1053.14 174 1058.75 175.369 1064 178.105L1064 200.132C1059.45 196.921 1055 195.316 1050.65 195.316 1045.53 195.316 1041.29 196.974 1037.94 200.29 1034.59 203.605 1032.91 207.842 1032.91 213 1032.91 218.158 1034.59 222.395 1037.94 225.71 1041.29 229.026 1045.53 230.684 1050.65 230.684 1054.95 230.684 1059.39 229.105 1064 225.947L1064 247.973C1058.65 250.658 1053.03 252 1047.16 252 1033.83 252 1023.26 247.474 1015.44 238.421 1009.15 231.105 1006 222.632 1006 213 1006 203.316 1009.15 194.842 1015.44 187.579 1023.26 178.527 1033.83 174 1047.16 174Z" fill-rule="evenodd"/><path d="M624.078 175C632.033 175 638.503 177.136 643.489 181.408 649.163 186.26 652 193.539 652 203.244L652 250 625.788 250 625.788 212.869C625.788 206.392 625.049 202.1 623.57 199.994 621.406 196.886 618.16 195.332 613.832 195.332 609.873 195.332 606.547 196.67 603.855 199.346 601.427 201.76 600.213 205.538 600.213 210.68L600.213 250 574 250 574 176.582 600.213 176.582 600.213 185.839C603.235 182.357 606.02 179.905 608.566 178.481 612.702 176.16 617.873 175 624.078 175Z" fill-rule="evenodd"/><path d="M805 177 834.966 177 854.472 214.273 873.427 177 903 177 844.404 286 815.461 286 840.236 239.722 805 177Z" fill-rule="evenodd"/><path d="M965 177 991 177 991 250 965 250 965 177Z" fill-rule="evenodd"/><path d="M195.281 216.334 193.784 218.527C187.502 226.254 179.9 232.868 170.977 238.371L162.605 242.021 172.216 241.642C174.976 241.422 176.972 241.122 178.204 240.741 180.67 239.981 182.871 238.459 184.809 236.176 185.777 235.034 187.238 232.598 189.19 228.866ZM201.73 206.893 195.283 216.331 195.283 216.331ZM96.6553 121.766C91.3719 121.766 85.0315 122 77.6346 122.468L77.6346 182.351 77.9871 235.912C87.0275 238.02 96.3032 239.073 105.813 239.073 122.603 239.073 135.753 236.381 145.264 230.995 154.774 225.61 161.789 218.146 166.309 208.605 170.83 199.064 173.09 188.673 173.09 177.434 173.09 160.576 168.305 147.083 158.736 136.956 149.167 126.829 128.474 121.766 96.6553 121.766ZM286.868 49.5904 241.958 155.483 331.073 155.483ZM108.103 18.5075C97.1837 18.5075 87.5558 19.3855 79.2197 21.1414 78.163 31.6781 77.6346 50.0587 77.6346 76.2831L77.6346 107.893C83.5054 108.361 90.139 108.595 97.5358 108.595 121.84 108.595 138.747 104.264 148.258 95.5999 157.768 86.9367 162.523 75.0537 162.523 59.9514 162.523 51.171 160.703 43.7075 157.063 37.561 153.423 31.4149 147.7 26.7025 139.892 23.4245 132.084 20.1463 121.488 18.5075 108.103 18.5075ZM289.862 2 301.31 2 376.511 178.312 386.55 201.844C389.485 208.517 392.861 215.776 396.676 223.62 400.493 231.464 403.134 236.088 404.602 237.493 406.069 238.898 407.889 239.981 410.061 240.741 412.234 241.503 417.077 241.942 424.591 242.059L426 243.464 426 252.595 424.591 254C412.146 252.947 400.933 252.42 390.953 252.42 371.462 253.005 351.973 253.532 332.482 254L331.073 252.595 331.073 243.464 332.482 242.059C345.632 241.824 353.851 241.268 357.138 240.39 360.426 239.512 362.07 237.493 362.07 234.332 362.07 231.756 361.248 228.361 359.604 224.146L337.942 170.585 235.97 170.585 216.774 215.541C213.369 223.62 211.666 229.532 211.666 233.278 211.666 236.205 213.251 238.371 216.422 239.776 219.591 241.18 227.575 241.942 240.373 242.059L241.958 243.464 241.958 252.595 240.549 254C225.404 253.063 212.136 252.595 200.747 252.595 187.832 252.595 174.799 253.063 161.649 254L160.064 252.595 160.064 243.464 160.807 242.805 143.59 250.312C134.256 252.771 122.662 254 108.807 254 105.989 254 97.5358 253.707 83.4467 253.122 67.8308 252.771 59.3772 252.595 58.0858 252.595 50.1019 252.595 40.2981 253.063 28.6742 254L27.2654 252.595 27.2654 246.8 28.6742 245.044C35.4844 242 39.4176 239.893 40.474 238.722 41.5307 237.551 42.3822 227.19 43.0277 207.639 43.6736 188.088 43.9964 173.161 43.9964 162.859L43.9964 98.4099 43.8205 58.5466C43.8205 49.883 43.703 42.8292 43.468 37.3853 43.2334 31.9414 42.9106 28.0487 42.4994 25.7073 42.0885 23.366 41.4136 21.7268 40.474 20.7903 39.5347 19.8537 38.214 19.0636 36.5117 18.4196 34.8091 17.7756 31.9032 17.2195 27.7937 16.7512L14.4089 15.6975 13 14.4684 13 5.68797 14.4089 4.45853C34.4864 5.39508 49.9844 5.86336 60.9036 5.86336 65.0131 5.86336 81.2745 5.39508 109.688 4.45853 118.846 4.22457 125.48 4.10741 129.589 4.10741 145.439 4.10741 158.003 5.68797 167.278 8.84874 176.553 12.0099 184.009 17.6002 189.645 25.6195 195.281 33.6391 198.098 42.7417 198.098 52.9269 198.098 65.9222 193.402 77.9805 184.009 89.1027 174.616 100.224 159.353 108.185 138.219 112.985 150.899 114.156 161.349 115.854 169.568 118.078 177.786 120.302 184.89 123.727 190.877 128.351 196.865 132.976 201.591 138.976 205.055 146.351 208.519 153.727 210.25 162.273 210.25 171.99L207.518 189.974 215.012 173.746 262.916 65.5707C271.957 44.3805 280.939 23.1902 289.862 2Z" fill="#2F5597" fill-rule="evenodd"/></g></svg>