<?xml version="1.0" encoding="UTF-8"?>
<svg id="Layer_1" xmlns="http://www.w3.org/2000/svg" version="1.1" viewBox="0 0 117 30">
  <!-- Generator: Adobe Illustrator 29.5.1, SVG Export Plug-In . SVG Version: 2.1.0 Build 141)  -->
  <g>
    <path d="M40,25.1c0-.5,0-1.2,0-2.3-.9,1.5-2.4,2.4-4,2.4s-2.6-.7-3-1.9c-.2-.6-.3-1.5-.3-3.5v-3.7c0-1.2,0-1.6-.3-1.9,0-.1-.3-.2-.8-.2h-.4v-.5l3.5-.2c0,2.1,0,2.6,0,4.2v2c0,2.3,0,2.9.3,3.7.3.8.9,1.3,1.8,1.3s2.4-.8,2.9-2.2c.3-.8.4-1.3.4-2.7v-3.5c0-1.2,0-1.6-.3-1.8,0-.1-.4-.2-.8-.2h-.4v-.5l3.5-.2c0,1.7,0,3.2,0,4.2v4.3c0,2.3.2,2.7,1.4,2.7h.2v.5l-3.3.2h0v-.2Z"/>
    <path d="M47.2,10.8c1.4-1.7,3.3-2.6,5.8-2.6s4.4.9,5.8,2.6c1.3,1.6,1.9,3.6,1.9,5.9s-.6,4.4-1.9,5.9c-1.4,1.8-3.3,2.6-5.8,2.6s-4.4-.9-5.8-2.6c-1.3-1.6-1.9-3.6-1.9-5.9s.6-4.3,1.9-5.9ZM48.8,22.2c.9,1.6,2.3,2.5,4.2,2.5s3.2-.9,4.2-2.5c.8-1.5,1.2-3.2,1.2-5.4s-.4-4-1.2-5.4c-.9-1.6-2.3-2.5-4.2-2.5s-3.2.9-4.2,2.5c-.8,1.5-1.2,3.3-1.2,5.4s.4,3.9,1.2,5.4Z"/>
    <path d="M65.7,21.7c0,1.3,0,1.9.3,2.3.2.3.6.5,1.1.5s.9-.1,1.4-.4l.2.6c-.8.4-1.5.6-2.3.6s-1.9-.4-2.3-1.1c-.3-.5-.3-1-.3-2.6v-7.3h-1.4v-.5c1.3-.1,2-1,2.4-3.1l1-.3v3.3h2.7v.6h-2.7v7.6h0v-.2Z"/>
    <path d="M73.2,21.7c0,1.3,0,1.9.3,2.3s.6.5,1.1.5.9-.1,1.4-.4l.2.6c-.7.4-1.5.6-2.3.6s-1.9-.4-2.3-1.1c-.3-.5-.3-1-.3-2.6v-7.3h-1.4v-.5c1.3-.1,2-1,2.4-3.1l1-.3v3.3h2.7v.6h-2.7v7.6h0v-.2Z"/>
    <path d="M88.4,24.9c-.9.1-1.9.2-2.3.2-.7,0-.9-.4-1-1.9-.4.4-.6.6-1.1,1-1,.7-1.8,1-2.9,1s-1.8-.2-2.3-.7c-.6-.5-1-1.5-1-2.4,0-1.8,1.1-2.9,3.3-3.4,1.2-.3,2.4-.4,4-.5v-1.4c0-1,0-1.6-.3-2.1-.3-.6-.9-.9-1.9-.9-1.5,0-2.3.7-2.4,2.1,0,.5,0,.6-.3.8-.2.1-.5.2-.8.2-.8,0-1.1-.2-1.1-.7,0-.8.6-1.6,1.5-2.2.9-.5,2-.7,3.3-.7s2.5.3,3,1c.5.6.6,1.3.6,2.6v5.4c0,1,0,1.8.3,1.9,0,.2.4.2,1.3.2v.5h.1ZM85.1,18.6c-2,.2-2.9.4-3.8.8-1,.5-1.5,1.4-1.5,2.6s.8,2.4,1.9,2.4,2.3-.7,2.9-1.6c.4-.6.5-1.6.5-3.1v-1.1h0Z"/>
    <path d="M94.1,25.1h-1.2l-2.8-9.4c-.4-1.3-.6-1.6-1.8-1.6v-.5h5v.5c-1.1,0-1.5.3-1.5.8s0,.5.2,1l2,7.1,3-9.2h.9l2.9,9.2,2-6.7c.2-.6.3-1,.3-1.3s-.2-.7-.6-.8c-.3,0-.4-.1-1-.2v-.5h4.4v.5c-1.3,0-1.7.5-2.2,2.3l-2.8,8.8h-1.1l-2.8-8.7-2.9,8.7h0Z"/>
    <path d="M116.7,24.9c-.9.1-1.9.2-2.3.2-.7,0-.9-.4-1-1.9-.4.4-.6.6-1.1,1-1,.7-1.8,1-2.9,1s-1.8-.2-2.3-.7c-.6-.5-1-1.5-1-2.4,0-1.8,1.1-2.9,3.3-3.4,1.2-.3,2.4-.4,4-.5v-1.4c0-1,0-1.6-.3-2.1-.3-.6-.9-.9-1.9-.9-1.5,0-2.3.7-2.4,2.1,0,.5,0,.6-.3.8-.2.1-.5.2-.8.2-.8,0-1.1-.2-1.1-.7,0-.8.6-1.6,1.5-2.2.9-.5,2-.7,3.3-.7s2.5.3,3,1c.5.6.6,1.3.6,2.6v5.5c0,1,0,1.8.2,1.9,0,.2.4.2,1.3.2v.5h.2ZM113.4,18.6c-2,.2-2.9.4-3.8.8-1,.5-1.5,1.4-1.5,2.6s.8,2.4,1.9,2.4,2.3-.7,2.9-1.6c.4-.6.5-1.6.5-3.1v-1.1h0Z"/>
  </g>
  <g>
    <path d="M20.8,6.2v-1.5h-2.9c-1.2-2-3.3-3.1-6-3.1s-4.7,1.1-6,3.1h-2.9v1.5H.3v22.2h23.3V6.2h-2.8ZM1.5,27.2V7.5h2.8v-1.5h2.4l.2-.3c1.2-2.3,3.4-2.8,5.1-2.8s3.8.5,5.1,2.8l.2.3h2.4v1.5h2.8v19.7H1.5Z"/>
    <g>
      <rect x="2.8" y="23.8" width="18.4" height="1.2"/>
      <path d="M19.8,21.3l-.2-6.8h.2c.2,0,.4-.2.4-.4s0-.2-.1-.3h.3v-.7H3.5v.7h.3s0,.2,0,.3c0,.2.2.4.4.4h.2l-.2,6.8h-1.3v1.2h18.4v-1.2h-1.4ZM16.3,14.5c.2,0,.4-.2.4-.4s0-.2-.1-.3h1.4s-.1.2-.1.3c0,.2.2.4.4.4h.2l-.2,6.8h-2l-.2-6.8h.2ZM12.8,14.5c.2,0,.4-.2.4-.4s0-.2-.1-.3h1.4s-.1.2-.1.3c0,.2.2.4.4.4h.2l-.2,6.8h-2l-.2-6.8h.2ZM9.2,14.5c.2,0,.4-.2.4-.4s0-.2-.1-.3h1.4s-.1.2-.1.3c0,.2.2.4.4.4h.2l-.2,6.8h-2l-.2-6.8h.2ZM5.5,14.5h.2c.2,0,.4-.2.4-.4s0-.2,0-.3h1.4s0,.2,0,.3c0,.2.2.4.4.4s.2,0,.2,0l-.2,6.8h-2l-.2-6.8h0Z"/>
      <polygon points="13.8 8.8 12 8.2 10.1 8.8 2.8 11.6 3.2 12.7 12 9.5 20.7 12.7 21.1 11.6 13.8 8.8"/>
    </g>
  </g>
</svg>
